<?xml version="1.0" encoding="utf-8"?>
<!-- Generator: Adobe Illustrator 23.0.3, SVG Export Plug-In . SVG Version: 6.00 Build 0)  -->
<svg version="1.1" id="Shape_2_copy_2__x2B__Shape_2_copy__x2B__Shape_2__x2B__Rectangle_1_copy_xA0_Изображение_1_"
	 xmlns="http://www.w3.org/2000/svg" xmlns:xlink="http://www.w3.org/1999/xlink" x="0px" y="0px" viewBox="0 0 1366.93 142.06"
	 style="enable-background:new 0 0 1366.93 142.06;" xml:space="preserve">
<style type="text/css">
	.st0{fill:#1F1F1F;}
	.st1{fill:#383838;}
	.st2{fill:#FDDD01;}
	.st3{fill:#FDFDFC;}
	.st4{fill:#CACAC7;}
	.st5{fill:#FADA04;}
</style>
<g>
	<g>
		<path class="st0" d="M822.85,119.86c-9.67,0-19.33,0-29,0c-0.58-1.5-1.93-0.98-2.97-1.03c-8.24-0.42-16.48-0.78-24.72-1.16
			c0.02,0.01,0.03,0.02,0.05,0.03c-0.16-0.03-0.33-0.07-0.49-0.08c-15.9-0.9-31.79-1.98-47.69-2.64
			c-10.25-0.42-20.48-1.98-30.78-0.99c-3.46-0.13-6.93-0.25-10.39-0.38c-0.73-1.34-2.05-0.86-3.12-0.92
			c-22.96-1.3-45.91-2.59-68.88-3.81c-40.43-2.15-80.87-4.23-121.31-6.37c-48.09-2.55-96.17-5.14-144.26-7.7
			c-33.61-1.79-67.23-3.54-100.84-5.33c-47.59-2.53-95.18-5.08-142.76-7.64c-31.61-1.7-63.22-3.46-94.83-5.19
			c0-199.15-0.01-398.3,0-597.45c0-10.3-0.87-9.36,9.47-9.36c430.95,0.02,861.92,0.02,1292.88,0.02c19.16,0,38.33,0.14,57.49-0.09
			c4.83-0.06,6.24,1.5,6.23,6.28c-0.11,202.48-0.1,404.96-0.11,607.45c-1.49,0.13-2.98,0.3-4.47,0.39
			c-27.42,1.78-54.84,3.55-82.27,5.34c-38.89,2.54-77.77,5.1-116.66,7.63c-32.74,2.13-65.48,4.23-98.22,6.37
			c-38.56,2.52-77.11,5.09-115.66,7.61c-38.06,2.48-76.12,4.84-114.17,7.46C831.22,118.59,826.83,117.81,822.85,119.86z"/>
		<path class="st1" d="M1366.83,83.49c0.01-202.48,0-404.96,0.11-607.45c0-4.78-1.4-6.34-6.23-6.28
			c-19.16,0.23-38.33,0.09-57.49,0.09c-430.97,0.01-861.94,0.01-1292.9,0.02c-10.34,0-9.47-0.94-9.47,9.36
			c0,199.15,0,398.3,0,597.45c-10.64-0.54-21.27-1.3-31.92-1.52c-4.05-0.09-5.17-1.19-5.27-5.33
			c-1.25-51.28-2.71-102.55-4.15-153.82c-2.52-90.06-5.06-180.12-7.6-270.18c-2-71.08-4.01-142.16-6.02-213.24
			c0-2.58-0.02-5.16-0.04-7.73c54.67,0,109.33,0,164,0c1.64,1.24,3.53,0.63,5.3,0.65c10.97,0.12,21.95,0.18,32.93,0.2
			c25.61,0.03,51.21,0.02,76.82,0.03c1.66,0.04,3.33,0.11,4.99,0.12c70.32,0.23,140.64,0.43,210.96,0.68
			c103.31,0.35,206.62,0.74,309.93,1.1c95.98,0.34,191.96,0.66,287.94,1c116.47,0.41,232.95,0.85,349.42,1.1
			c4.81,0.01,6.66,1.19,5.93,5.9c-0.07,3.66-0.21,7.32-0.21,10.99c-0.01,209.4-0.01,418.81-0.01,628.22c0,1.33-0.12,2.68,0.02,4
			c0.27,2.43-0.83,3.09-3.12,3.19C1382.77,82.41,1374.8,82.99,1366.83,83.49z"/>
		<path class="st2" d="M1366.83,83.49c7.97-0.5,15.94-1.08,23.92-1.45c2.3-0.11,3.39-0.76,3.12-3.19c-0.15-1.32-0.02-2.66-0.02-4
			c0-209.41,0-418.82,0.01-628.23c0-3.66,0.13-7.32,0.21-10.98c0.19,0.8,0.5,1.59,0.57,2.41c3.04,36.51,6.07,73.03,9.07,109.54
			c3.47,42.33,6.86,84.66,10.37,126.98c3.83,46.31,7.79,92.6,11.62,138.91c3.5,42.32,6.89,84.66,10.37,126.98
			c4.27,51.95,8.55,103.9,12.97,155.84c0.38,4.52-0.07,9.22,1.82,13.57c0,3,0,6,0,9c-35.09,0.08-70.19,0.16-105.28,0.25
			c-42.57-0.01-85.15-0.02-127.72-0.04c-28.6-0.01-57.2-0.04-85.81-0.07c-0.83-0.04-1.66-0.12-2.5-0.12
			c-82.97-0.01-165.93-0.01-248.9-0.01c-1.67,0-3.35-0.08-4.79,1c-17.67,0-35.33,0-53,0c3.98-2.05,8.37-1.27,12.53-1.56
			c38.05-2.62,76.11-4.98,114.17-7.46c38.56-2.51,77.11-5.08,115.66-7.61c32.74-2.14,65.48-4.24,98.22-6.37
			c38.89-2.54,77.77-5.1,116.66-7.63c27.42-1.79,54.84-3.56,82.27-5.34C1363.85,83.79,1365.34,83.62,1366.83,83.49z"/>
		<path class="st3" d="M1450.85,109.86c-1.9-4.34-1.44-9.04-1.82-13.57c-4.42-51.94-8.7-103.89-12.97-155.84
			c-3.48-42.33-6.86-84.66-10.37-126.98c-3.83-46.31-7.79-92.6-11.62-138.91c-3.5-42.32-6.9-84.66-10.37-126.98
			c-2.99-36.52-6.03-73.03-9.07-109.54c-0.07-0.81-0.37-1.6-0.57-2.41c0.74-4.71-1.11-5.89-5.93-5.9
			c-116.48-0.24-232.95-0.69-349.42-1.1c-95.98-0.34-191.96-0.66-287.94-1c-103.31-0.36-206.62-0.75-309.93-1.1
			c-70.31-0.24-140.63-0.44-210.95-0.67c-1.66-0.01-3.33-0.08-4.99-0.12c-0.09-0.29-0.11-0.58-0.05-0.88
			c407.17,0,814.33,0.01,1221.5-0.09c3.75,0,4.6,0.84,4.59,4.59C1450.84-343.81,1450.85-116.97,1450.85,109.86z"/>
		<path class="st4" d="M676.85,113.62c3.46,0.13,6.93,0.25,10.37,0.38c26.3,1.22,52.62,2.45,78.94,3.67
			c8.24,0.38,16.48,0.74,24.72,1.16c1.05,0.05,2.39-0.47,2.97,1.03c-9.67,0-19.33,0-29,0c-7.33-1.49-14.67-1.81-22,0
			c-6.33,0-12.67,0-19,0c-1-2.62-3.32-1.81-5.16-1.83c-38.47-0.28-76.93-0.92-115.39-2.02c-18.98-0.54-37.96-0.41-56.95-0.83
			c-38.79-0.86-77.6-1.06-116.39-2.17c-18.81-0.54-37.63-0.41-56.45-0.82c-39.12-0.87-78.26-1.07-117.39-2.18
			c-18.48-0.53-36.96-0.4-55.45-0.81c-39.29-0.87-78.59-1.26-117.89-2.14c-34.3-0.76-68.62-0.73-102.93-1.47
			c-9.81-0.21-19.64-0.69-29.46-0.66c-3.5,0.01-4.69-1.28-4.6-4.7c0.18-6.66,0.05-13.33,0.05-19.99
			c12.81,0.55,25.63,1.07,38.44,1.64c39.12,1.76,78.23,3.53,117.34,5.34c47.77,2.2,95.53,4.45,143.3,6.65
			c39.11,1.8,78.23,3.54,117.34,5.33c48.43,2.22,96.87,4.47,145.3,6.72c32.45,1.51,64.91,3.07,97.36,4.55
			C628.92,111.55,652.88,112.57,676.85,113.62z"/>
		<path class="st5" d="M676.85,113.62c-23.97-1.05-47.94-2.07-71.9-3.17c-32.46-1.49-64.91-3.04-97.36-4.55
			c-48.43-2.25-96.87-4.5-145.3-6.72c-39.11-1.79-78.23-3.53-117.34-5.33c-47.77-2.2-95.53-4.45-143.3-6.65
			c-39.11-1.8-78.23-3.57-117.34-5.34c-12.81-0.58-25.63-1.1-38.44-1.64c-1.68-0.12-3.35-0.24-5.02-0.36c0-19.33,0-38.67,0-58
			c1.26-12.49,0.82-25.01,0.65-37.52c0.06-1,0.18-1.99,0.19-2.99c0.61-80.13,1.2-160.27,1.82-240.4
			c0.78-102.79,1.6-205.58,2.4-308.37c2.01,71.08,4.01,142.16,6.02,213.24c2.54,90.06,5.08,180.12,7.6,270.18
			c1.44,51.27,2.9,102.54,4.15,153.82c0.1,4.14,1.22,5.25,5.27,5.33c10.64,0.23,21.28,0.98,31.92,1.52
			c31.61,1.73,63.22,3.48,94.83,5.19c47.59,2.57,95.17,5.11,142.76,7.64c33.61,1.79,67.23,3.54,100.84,5.33
			c48.09,2.56,96.17,5.15,144.26,7.7c40.43,2.14,80.87,4.22,121.31,6.37c22.96,1.22,45.92,2.52,68.88,3.81
			C674.8,112.76,676.12,112.28,676.85,113.62z"/>
		<path class="st3" d="M-59.15,79.86c1.67,0.12,3.34,0.24,5.01,0.37c0,6.66,0.13,13.33-0.05,19.99c-0.09,3.42,1.1,4.72,4.6,4.7
			c9.82-0.03,19.64,0.45,29.46,0.66c34.3,0.74,68.62,0.71,102.93,1.47c39.29,0.87,78.6,1.26,117.89,2.14
			c18.49,0.41,36.97,0.28,55.45,0.81c39.12,1.12,78.26,1.32,117.39,2.18c18.82,0.42,37.64,0.28,56.45,0.82
			c38.79,1.12,77.6,1.31,116.39,2.17c18.99,0.42,37.97,0.29,56.95,0.83c38.46,1.1,76.92,1.74,115.39,2.02
			c1.83,0.01,4.16-0.79,5.16,1.83c-259.5,0-519-0.01-778.5,0.09c-3.75,0-4.69-0.83-4.6-4.6C-58.97,103.53-59.15,91.69-59.15,79.86z"
			/>
		<path class="st3" d="M-54.09-567.42c-0.8,102.79-1.62,205.58-2.41,308.37c-0.62,80.13-1.21,160.27-1.82,240.4
			c-0.01,1-0.12,1.99-0.18,2.98c-0.09-0.33-0.31-0.48-0.65-0.47c0-184.67,0.02-369.33-0.11-554c0-4.23,0.88-5.9,5.11-5
			C-54.13-572.57-54.11-569.99-54.09-567.42z"/>
		<path class="st5" d="M875.85,119.86c1.44-1.08,3.13-1,4.79-1c82.97,0,165.93,0,248.9,0.01c0.83,0,1.66,0.08,2.5,0.12
			c-0.11,0.28-0.17,0.57-0.19,0.87C1046.52,119.86,961.18,119.86,875.85,119.86z"/>
		<path class="st4" d="M1131.85,119.86c0.02-0.3,0.08-0.59,0.19-0.87c28.6,0.02,57.2,0.05,85.81,0.07
			c42.57,0.02,85.15,0.03,127.73,0.04c0.12,0.24,0.21,0.5,0.28,0.75C1274.52,119.86,1203.18,119.86,1131.85,119.86z"/>
		<path class="st4" d="M224.85-575.14c-0.06,0.3-0.04,0.59,0.04,0.88c-25.61-0.01-51.21,0-76.82-0.03
			c-10.98-0.01-21.95-0.08-32.93-0.2c-1.77-0.02-3.66,0.59-5.3-0.65C148.18-575.14,186.52-575.14,224.85-575.14z"/>
		<path class="st3" d="M1345.85,119.86c-0.07-0.26-0.16-0.51-0.28-0.75c35.09-0.08,70.19-0.16,105.28-0.25
			c-0.9,2.07-2.7,0.94-4,0.94C1413.18,119.88,1379.52,119.86,1345.85,119.86z"/>
		<path class="st4" d="M-59.15-16.14c0.34-0.01,0.56,0.14,0.65,0.48c0.17,12.51,0.61,25.03-0.65,37.52
			C-59.15,9.19-59.15-3.47-59.15-16.14z"/>
		<path class="st3" d="M742.85,119.86c7.33-1.81,14.67-1.49,22,0C757.52,119.86,750.18,119.86,742.85,119.86z"/>
		<path class="st5" d="M766.16,117.67c-26.32-1.22-52.64-2.45-78.94-3.67c10.32-0.99,20.55,0.56,30.8,0.99
			c15.91,0.66,31.8,1.73,47.69,2.64c0.16,0.01,0.33,0.05,0.49,0.08C766.19,117.69,766.17,117.68,766.16,117.67z"/>
	</g>
</g>
</svg>
